<?xml version="1.0" encoding="utf-8"?>
<!-- Generator: Adobe Illustrator 27.5.0, SVG Export Plug-In . SVG Version: 6.00 Build 0)  -->
<svg version="1.1" xmlns="http://www.w3.org/2000/svg" xmlns:xlink="http://www.w3.org/1999/xlink" x="0px" y="0px"
	 viewBox="0 0 1100 800" style="enable-background:new 0 0 1100 800;" xml:space="preserve">
<g id="Background">
	<rect style="fill:#474EBB;" width="1100" height="800"/>
</g>
<g id="Shadow">
	<g style="opacity:0.4;">
		<path style="fill:#F1F2F2;" d="M521.964,644.118c-28.193,0.084-56.385,0.762-84.528,3.892c-10.611,1.18-21,3.776-31.635,4.823
			c-21.244,2.092-42.107,5.993-63.426,7.793c-17.168,1.449-34.408,2.305-51.526,4.143c-16.049,1.724-33.816,1.326-49.742-1.522
			c-11.79-2.109-23.633-3.296-35.225-6.682c-12.967-3.789-27.055-6.498-40.565-6.4c-19.266,0.139-38.028,0.155-56.466,6.845
			c-6.472,2.348-14.395,6.209-19.31,11.137c-11.251,11.282-12.774,39.432-1.54,51.133c18.921,19.693,59.305,27.42,85.827,27.785
			c29.063,0.4,57.296-1.758,86.401-3.026c27.045-1.179,54.023-2.856,81.113-2.797c55.328,0.121,110.664,0,165.893-3.696
			c51.888-3.472,103.907-2.28,155.909-2.28c53.326,0,106.291,0.419,159.233,7.506c23.067,3.088,46.568,4.169,69.75,6.332
			c20.762,1.938,40.714-0.038,61.394-1.829c17.365-1.504,34.616-5.964,50.391-13.503c12.487-5.968,34.749-24.507,38.579-38.752
			c10.736-39.935-151.3-38.975-176.179-38.885c-27.831,0.101-55.884,1.016-83.693-0.045c-11.698-0.446-23.224-2.733-34.641-5.238
			c-11.372-2.495-22.83-1.861-34.362-2.91c-48.092-4.374-96.291-3.734-144.536-3.734
			C553.379,644.209,537.671,644.071,521.964,644.118z"/>
	</g>
</g>
<g id="Object">
	<g>
		<polygon style="fill:#EED5B9;" points="397.1,273.755 407.918,261.866 403.357,256.712 394.259,263.103 393.163,259.598 
			385.067,270.974 389.13,277.015 		"/>
		<polygon style="fill:#D34E4E;" points="287.521,256.712 331.029,293.931 388.359,263.291 394.811,276.363 329.115,332.758 
			255.225,281.038 		"/>
	</g>
	<g>
		<g>
			<g>
				
					<ellipse transform="matrix(0.7071 -0.7071 0.7071 0.7071 -111.7397 564.2079)" style="fill:#EBB044;" cx="625.189" cy="416.986" rx="94.884" ry="94.884"/>
				<path style="opacity:0.1;fill:#2D2A27;" d="M624.561,313.557c-57.122,0.347-103.147,46.934-102.8,104.056
					c0.347,57.122,46.934,103.147,104.056,102.8s103.147-46.934,102.8-104.056C728.271,359.236,681.683,313.211,624.561,313.557z
					 M625.712,503.041c-47.527,0.289-86.289-38.006-86.578-85.533c-0.289-47.527,38.006-86.289,85.533-86.578
					c47.527-0.289,86.289,38.006,86.578,85.533C711.534,463.99,673.239,502.753,625.712,503.041z"/>
				<path style="fill:#F9CC5D;" d="M624.497,302.948c-62.981,0.383-113.728,51.749-113.345,114.73
					c0.382,62.981,51.749,113.728,114.73,113.345c62.981-0.382,113.728-51.749,113.345-114.73
					C738.845,353.312,687.478,302.566,624.497,302.948z M625.766,511.868c-52.402,0.318-95.141-41.904-95.459-94.307
					c-0.318-52.402,41.904-95.141,94.307-95.459c52.402-0.318,95.141,41.904,95.459,94.307
					C720.39,468.812,678.168,511.55,625.766,511.868z"/>
			</g>
		</g>
		<g>
			<g>
				<path style="fill:#F9CC5D;" d="M594.214,445.755c-2.394-3.994-2.867-10.636,4.096-11.471c5.798-0.695,11.736,3.707,17.002,6.21
					c4.324,2.058,9.098,3.086,14.319,3.086c5.59,0,10.073-1.361,13.449-4.083c3.375-2.721,5.063-6.297,5.063-10.729
					c0-4.493-1.359-7.69-4.074-9.589c-2.717-1.899-7.371-2.848-13.963-2.848h-4.351c-10.759,0-18.96-2.246-24.603-6.741
					c-5.644-4.494-8.465-11.014-8.465-19.559c0-8.355,2.755-14.842,8.267-19.463c5.511-4.62,13.251-6.931,23.219-6.931
					c4.06,0,8.2,0.681,12.421,2.042c8.775,2.832,22.656,9.725,20.222,18.65c-3.84,14.083-18.857-4.461-24.26-6.783
					c-3.164-1.36-6.881-2.04-11.152-2.04c-4.958,0-8.953,1.314-11.985,3.94c-3.033,2.627-4.549,5.967-4.549,10.017
					c0,3.988,1.555,6.836,4.667,8.545c3.111,1.709,9.81,2.691,20.094,2.943c10.969,0.317,18.986,2.611,24.049,6.883
					c5.063,4.273,7.595,10.871,7.595,19.796c0,8.545-2.796,15.381-8.386,20.508c-5.591,5.127-13.132,7.691-22.625,7.691
					c-3.005,0-6.354-0.332-10.045-0.997c-7.671-1.381-19.191-1.312-24.742-7.383C594.986,446.911,594.568,446.345,594.214,445.755z"
					/>
			</g>
			<path style="fill:#F9CC5D;" d="M627.151,478.341h-0.12c-3.276,0-5.932-3.072-5.932-6.862v-116.98c0-3.79,2.656-6.862,5.932-6.862
				h0.12c3.276,0,5.932,3.072,5.932,6.862v116.98C633.084,475.269,630.428,478.341,627.151,478.341z"/>
		</g>
	</g>
	<g>
		
			<ellipse transform="matrix(0.7071 -0.7071 0.7071 0.7071 -51.5377 435.4886)" style="opacity:0.08;fill:#2D2A27;" cx="499.912" cy="279.956" rx="114.04" ry="114.04"/>
		<g>
			<g>
				
					<ellipse transform="matrix(0.7071 -0.7071 0.7071 0.7071 -48.5142 430.8312)" style="fill:#EBB044;" cx="495.802" cy="273.977" rx="94.884" ry="94.884"/>
				<path style="opacity:0.1;fill:#2D2A27;" d="M495.174,170.549c-57.122,0.347-103.147,46.935-102.8,104.056
					c0.347,57.122,46.934,103.147,104.056,102.8c57.122-0.347,103.147-46.934,102.8-104.056
					C598.884,216.227,552.296,170.202,495.174,170.549z M496.325,360.033c-47.527,0.289-86.289-38.006-86.578-85.533
					c-0.289-47.527,38.006-86.289,85.533-86.578c47.527-0.288,86.289,38.006,86.578,85.533
					C582.146,320.982,543.852,359.744,496.325,360.033z"/>
				<path style="fill:#F9CC5D;" d="M495.11,159.94c-62.981,0.382-113.728,51.749-113.345,114.73
					c0.382,62.981,51.749,113.728,114.73,113.345c62.981-0.383,113.728-51.749,113.345-114.73
					C609.458,210.304,558.091,159.557,495.11,159.94z M496.378,368.86c-52.402,0.318-95.141-41.904-95.459-94.307
					c-0.318-52.402,41.904-95.141,94.307-95.459c52.402-0.318,95.141,41.904,95.459,94.307
					C591.003,325.804,548.781,368.542,496.378,368.86z"/>
			</g>
			<path style="fill:#F9CC5D;" d="M533.732,279.497c-2.809-3.701-7.091-6.57-12.838-8.608c3.546-2.039,6.213-4.631,8-7.777
				c1.786-3.144,2.668-6.814,2.642-11.01c-0.051-8.338-3.037-14.681-8.961-19.026c-5.921-4.347-14.512-6.486-25.771-6.418
				l-4.062,0.025c-0.023-3.777-0.046-7.554-0.069-11.331c-0.021-3.472-6.304-3.435-6.283,0.038
				c0.023,3.777,0.046,7.555,0.069,11.332l-4.084,0.025c-0.023-3.777-0.046-7.554-0.069-11.331
				c-0.021-3.472-6.304-3.434-6.283,0.038c0.023,3.777,0.046,7.554,0.069,11.331l-16.492,0.1c-1.806,0.011-3.185,0.512-4.134,1.5
				c-0.95,0.988-1.42,2.411-1.408,4.271c0.013,2.179,0.607,3.675,1.781,4.491c1.173,0.817,3.805,1.211,7.895,1.186l2.629-0.016
				l0.436,71.781l-2.629,0.016c-4.409,0.027-7.195,0.428-8.359,1.205c-1.164,0.778-1.738,2.23-1.725,4.354
				c0.012,1.911,0.485,3.342,1.419,4.292c0.935,0.95,2.331,1.42,4.191,1.409l16.971-0.103c0.023,3.777,0.046,7.554,0.069,11.332
				c0.021,3.473,6.305,3.434,6.283-0.038c-0.023-3.777-0.046-7.554-0.069-11.331l4.084-0.025c0.023,3.777,0.046,7.554,0.069,11.332
				c0.021,3.472,6.304,3.434,6.283-0.038c-0.023-3.777-0.046-7.554-0.069-11.332l2.069-0.012l6.852-0.042
				c5.841-0.036,10.355-0.395,13.537-1.079c3.184-0.682,6.07-1.776,8.664-3.279c4.34-2.576,7.693-5.862,10.058-9.86
				c2.367-3.998,3.535-8.413,3.506-13.247C537.968,287.915,536.544,283.197,533.732,279.497z M498.625,238.121
				c6.161-0.037,10.895,1.196,14.204,3.699c3.307,2.503,4.977,6.118,5.005,10.845c0.03,4.992-1.766,8.694-5.39,11.106
				c-3.624,2.412-9.208,3.641-16.748,3.687l-2.707,0.016c-0.059-9.772-0.119-19.545-0.178-29.317L498.625,238.121z M486.529,238.194
				c0.059,9.772,0.119,19.545,0.178,29.317l-4.084,0.025c-0.059-9.773-0.119-19.545-0.178-29.318L486.529,238.194z M482.881,310
				c-0.066-10.888-0.132-21.775-0.198-32.663l4.084-0.025c0.066,10.888,0.132,21.775,0.198,32.663L482.881,310z M518.079,306.001
				c-4.075,2.549-11.103,3.853-21.088,3.913l-3.743,0.023c-0.066-10.888-0.132-21.775-0.198-32.663l4.539-0.028
				c9.825-0.06,16.699,1.147,20.618,3.619s5.896,6.655,5.932,12.552C524.174,299.261,522.153,303.455,518.079,306.001z"/>
		</g>
	</g>
	<g>
		<g>
			<polygon style="fill:#2F435F;" points="873.802,443.753 873.802,466.885 842.958,567.125 850.669,671.221 831.392,675.076 
				800.549,547.848 801.729,510.416 815.971,434.073 			"/>
			<polygon style="fill:#2F435F;" points="849.335,471.142 880.326,683.188 894.413,683.188 903.31,567.527 922.587,451.865 			"/>
			<polygon style="fill:#2B2133;" points="834.584,671.739 819.868,687.313 824.119,695.207 854.482,680.633 848.89,669.095 			"/>
			<polygon style="fill:#2B2133;" points="880.588,682.151 862.448,693.555 864.591,702.261 897.633,695.735 895.101,683.166 			"/>
		</g>
		<g>
			<polygon style="fill:#EED5B9;" points="756.007,300.882 745.189,288.993 749.75,283.839 758.848,290.23 759.945,286.724 
				768.04,298.101 763.977,304.142 			"/>
			<polygon style="fill:#7FC5A3;" points="854.674,271.217 822.079,321.058 764.748,290.418 758.297,303.489 823.993,359.884 
				886.489,294.033 			"/>
		</g>
		<g>
			<path style="fill:#EED5B9;" d="M836.524,218.647c12.494,0.919,24.176-9.341,36.473-6.794c7.995,1.656,14.307,8.747,16.747,16.74
				c1.137,3.725,1.54,7.785,0.427,11.49c-0.722,2.404-2.054,4.571-3.623,6.496c-2.097,2.574-4.661,4.712-7.508,6.355
				c1.564,2.52,3.355,4.899,5.348,7.096c-5.762,2.206-11.524,4.413-17.286,6.62c-1.273-3.311-2.546-6.622-3.82-9.933
				c-1.733-0.096-3.459-0.343-5.151-0.782c-10.23-2.655-18.711-11.614-20.993-22.177
				C836.07,228.809,836.275,223.692,836.524,218.647z"/>
			<polygon style="fill:#3B455A;" points="839.679,222.416 878.311,217.826 885.808,247.335 896.718,238.678 891.096,190.392 
				836.576,189.218 812.969,203.066 813.969,216.945 835.077,231.153 			"/>
		</g>
		<path style="fill:#7FC5A3;" d="M854.674,271.217l45.886-18.203c0,0,38.107,44.397,56.645,109.281
			c18.538,64.884-22.658,155.889-22.658,155.889s-127.953-26.121-148.944-30.24l41.411-129.769L854.674,271.217z"/>
		<g>
			<polygon style="fill:#EED5B9;" points="735.871,388.855 719.318,388.108 719.329,381.019 730.778,379.021 729.227,375.666 
				743.314,378.031 744.297,385.401 			"/>
			<polygon style="fill:#7FC5A3;" points="854.254,288.089 811.586,360.196 738.813,375.631 741.512,390.155 831.47,390.975 
				881.78,327.178 			"/>
		</g>
	</g>
	<g>
		<path style="fill:none;" d="M240.22,213.853c-0.96,1.322-1.294,3.574-1.305,6.186C239.35,217.977,239.785,215.915,240.22,213.853z
			"/>
		<polygon style="fill:#2B2133;" points="185.196,677.346 184.86,680.131 183.745,689.375 201.117,700.849 211.475,692.721 
			203.347,682.362 202.581,681.856 202.145,682.915 		"/>
		<path style="fill:#EAEDEF;" d="M187.563,416.375c0.018-1.171,0.051-2.342,0.08-3.513l-1.546,12.813l1.035,5.74
			c0.009-1.132,0.026-2.245,0.049-3.322C187.294,422.599,187.538,418.012,187.563,416.375z"/>
		<path style="fill:#EAEDEF;" d="M237.362,432.876c-8.348,1.58-16.861,3.837-24.303,8.084c-7.1,4.052-12.195,9.955-19.398,14.149
			c-0.658,0.383-1.378,0.775-2.128,0.707l17.317,96.023l-24.599,125.197l0.944,0.31l0.779-6.458l16.605,10.968l60.559-147.201
			l0.737-8.305l-15.883-95.295C244.434,431.586,240.886,432.19,237.362,432.876z"/>
		<polygon style="fill:#EAEDEF;" points="185.196,677.346 202.145,682.915 202.581,681.856 185.976,670.888 		"/>
		<path style="fill:#EAEDEF;" d="M275.325,428.698c-3.995,0.074-7.994,0.288-11.988,0.602l3.851,59.755l-3.311,37.294l1.904,11.422
			l10.875,141.38h0.099v-2.049h17.42L316.27,525.93l-1.095-94.681C310.516,430.764,287.685,428.468,275.325,428.698z"/>
		<path style="fill:#EAEDEF;" d="M263.337,429.3c-5.131,0.404-10.252,0.993-15.343,1.754l15.883,95.295l3.311-37.294L263.337,429.3z
			"/>
		<polygon style="fill:#2B2133;" points="276.756,679.152 276.756,686.413 295.376,695.724 304.687,686.413 295.376,677.103 
			294.175,677.103 293.876,679.152 		"/>
		<polygon style="fill:#2B2133;" points="276.756,679.152 293.876,679.152 294.175,677.103 276.756,677.103 		"/>
		<path style="fill:#EDD4B9;" d="M263.218,251.155c0.595-2.026,1.355-3.884,3.128-4.922c1.899-1.112,4.31-0.79,6.389-1.512
			c3.916-1.36,5.602-5.859,6.802-9.827c1.043-3.45,2.086-6.9,3.129-10.349c0.47-1.553,0.937-3.155,1.242-4.764
			c-5.953-2.225-11.52-6.301-17.736-7.859c-6.974-1.748-19.707-4.329-25.595,1.509c-0.128,0.127-0.246,0.27-0.357,0.423
			c-0.435,2.062-0.87,4.124-1.305,6.186c-0.026,5.823,1.548,13.433,1.351,16.529c-0.848-0.282-1.671-0.667-2.475-1.12
			c1.815,2.941,5.615,4.775,9.024,6.116c-0.545,2.92-0.916,5.87-1.135,8.832c0.046,0.004,0.093,0.007,0.139,0.011
			C251.499,250.895,257.383,250.858,263.218,251.155z"/>
		<path style="fill:#3B455A;" d="M237.191,228.207c0.574-2.722,1.149-5.445,1.723-8.167c0.011-2.612,0.345-4.864,1.305-6.186
			c0.259-1.227,0.518-2.454,0.777-3.681c0.439-2.079,0.903-4.219,2.107-5.97c2.113-3.072,6.039-4.306,9.733-4.808
			c9.428-1.281,19.563,1.124,26.6,7.528c1.873,1.704,3.549,3.732,4.313,6.146c0.689,2.175,0.586,4.45,0.158,6.712
			c1.331,0.498,2.681,0.905,4.063,1.168c5.439,1.036,12.518-1.389,17.273-4.045c5.868-3.28,8.915-13.359,12.476-18.75
			c0.976-1.477,2.021-2.898,3.18-4.225c2.512-2.873,5.565-5.303,7.619-8.519c2.054-3.216,2.898-7.647,0.691-10.76
			c-1.425-2.009-3.818-3.075-6.153-3.857c-7.695-2.576-16.086-3.041-24.019-1.33c-7.556,1.63-14.371,4.538-21.803,1.447
			c-6.983-2.905-12.136-2.016-19.633,0.352c-8.113,2.562-18.887,2.84-26.284,6.607c-3.089,1.573-5.601,4.116-7.591,6.954
			c-6.893,9.834-7.441,23.722-1.344,34.068c1.368,2.321,3.029,4.458,4.781,6.504c3.029,3.538,6.552,7.759,10.625,10.053
			c-0.522-0.846-0.889-1.78-1.024-2.826C236.576,231.148,236.885,229.661,237.191,228.207z"/>
		<path style="fill:#3B455A;" d="M238.915,220.039c-0.574,2.722-1.149,5.445-1.723,8.167c-0.307,1.454-0.615,2.942-0.425,4.416
			c0.135,1.046,0.502,1.98,1.024,2.826c0.804,0.453,1.627,0.838,2.475,1.12C240.462,233.473,238.889,225.862,238.915,220.039z"/>
		<path style="fill:#3B455A;" d="M283.75,213.069c-0.765-2.414-2.44-4.442-4.313-6.146c-7.038-6.404-17.172-8.809-26.6-7.528
			c-3.695,0.502-7.621,1.736-9.733,4.808c-1.204,1.751-1.668,3.891-2.107,5.97c-0.259,1.227-0.518,2.454-0.777,3.681
			c0.111-0.153,0.228-0.296,0.357-0.423c5.889-5.838,18.622-3.257,25.595-1.509c6.217,1.558,11.784,5.635,17.736,7.859
			C284.336,217.519,284.439,215.244,283.75,213.069z"/>
		<path style="fill:#FFFFFF;" d="M191.45,455.811c0.028,0.004,0.056,0.002,0.083,0.005l-4.4-24.4
			C187.041,442.431,187.673,455.294,191.45,455.811z"/>
		<path style="fill:#D34E4E;" d="M387.112,395.998c-2.871-4.136-12.625-6.905-17.021-9.446
			c-9.819-5.676-19.257-12.155-27.567-19.936c-11.811-11.059-20.527-24.625-25.982-39.904c-2.754-7.713-4.739-15.683-6.379-23.706
			c-3.759-18.393-6.162-38.083-25.428-47.32c-6.748-3.235-14.094-4.155-21.517-4.533c-0.529,1.801-0.929,3.733-1.791,5.343
			c-5.317-0.726-10.635-1.451-15.952-2.177c0.032-1.31,0.108-2.617,0.204-3.924c-2.918-0.249-5.963-0.458-8.655,0.686
			c-7.06,3.001-14.538,8.014-19.624,13.819c-5.035,5.747-7.019,13.516-9.961,20.406c-4.28,10.024-10.08,36.939-11.717,47.715
			c-1.982,13.051-3.816,26.128-5.243,39.254c-1.466,13.483-2.5,27.023-2.837,40.585l1.841-15.259l71.599-3.279l0.315,4.892
			l53.497,7.877l0.279,24.156c0.547,0.057,0.846,0.089,0.846,0.089c7.762-1.392,15.179-4.243,22.615-6.888
			c12.775-4.544,25.822-8.547,37.81-14.912C380.292,407.496,390.904,401.46,387.112,395.998z"/>
		<path style="fill:#D34E4E;" d="M193.661,455.109c7.203-4.194,12.299-10.097,19.398-14.149c7.442-4.247,15.954-6.504,24.303-8.084
			c3.524-0.687,7.072-1.29,10.632-1.822l-5.777-34.663l19.181,2.824l-0.315-4.892l-71.599,3.279l-1.841,15.259
			c-0.029,1.171-0.062,2.342-0.08,3.513c-0.026,1.637-0.269,6.224-0.382,11.718c-0.022,1.078-0.039,2.19-0.049,3.322l4.4,24.4
			C192.284,455.884,193.003,455.492,193.661,455.109z"/>
		<path style="fill:#D34E4E;" d="M261.399,399.216l1.939,30.085c3.994-0.315,7.992-0.528,11.988-0.602
			c12.36-0.23,35.191,2.066,39.85,2.551l-0.279-24.156L261.399,399.216z"/>
		<path style="fill:#D34E4E;" d="M247.995,431.054c5.091-0.76,10.212-1.349,15.343-1.754l-1.939-30.085l-19.181-2.824
			L247.995,431.054z"/>
		<path style="fill:#FFFFFF;" d="M261.428,256.498c0.862-1.61,1.262-3.543,1.791-5.343c-5.836-0.297-11.72-0.259-17.399-0.746
			c-0.046-0.004-0.093-0.008-0.139-0.011c-0.096,1.306-0.172,2.614-0.204,3.924C250.793,255.046,256.11,255.772,261.428,256.498z"/>
	</g>
	<g>
		<polygon style="fill:#ECD3B8;" points="388.555,356.993 396.099,354.32 407.918,347.083 407.184,337.378 396.449,340.939 
			395.853,338.648 388.144,339.073 378.41,346.151 379.89,355.042 		"/>
		<path style="fill:#D34E4E;" d="M225.72,343.082l112.069,26.216l52.308-12.678l1.242-17.771l-52.542,3.688l-98.337-36.109
			C240.46,306.427,229.269,328.075,225.72,343.082z"/>
	</g>
	<g>
		<path style="fill:#FFFFFF;" d="M392.468,403.18c-4.488,32.418,4.5,64.689,25.31,90.873c3.014,3.791,6.275,7.448,9.694,10.867
			c9.082,9.082,19.48,16.743,30.906,22.77c10.594,5.589,21.961,9.714,33.828,12.28l-8.479,21.51l-2.383,6.046l5.758-3.013
			l45.787-23.961l3.027-1.584l-2.497-2.331l-37.794-35.278l-4.967-4.637l0.916,6.733l2.675,19.652
			c-20.998-4.833-39.898-15.213-54.836-30.151c-2.965-2.965-5.792-6.134-8.404-9.42c-17.916-22.542-25.656-50.272-21.794-78.082
			l0.333-2.398l-2.398-0.333l-11.932-1.657l-1.016-0.151l-0.82,0.639l-0.818,0.639L392.468,403.18z"/>
	</g>
	<g>
		<path style="fill:#FFFFFF;" d="M757.4,320.089c4.488-32.418-4.5-64.689-25.31-90.873c-3.013-3.791-6.275-7.447-9.694-10.867
			c-9.082-9.082-19.48-16.743-30.906-22.77c-10.594-5.589-21.961-9.714-33.828-12.28l8.479-21.511l2.383-6.046l-5.758,3.013
			l-45.787,23.961l-3.026,1.584l2.497,2.331l37.794,35.278l4.967,4.637l-0.917-6.733l-2.675-19.652
			c20.998,4.833,39.898,15.213,54.836,30.151c2.965,2.965,5.792,6.134,8.404,9.42c17.916,22.542,25.656,50.272,21.794,78.082
			l-0.333,2.398l2.398,0.333l11.932,1.657l1.016,0.151l0.82-0.639l0.818-0.639L757.4,320.089z"/>
	</g>
</g>
</svg>
